<?xml version="1.0" encoding="utf-8"?>
<!-- Generator: Adobe Illustrator 24.1.2, SVG Export Plug-In . SVG Version: 6.00 Build 0)  -->
<svg version="1.1" id="Layer_1" xmlns="http://www.w3.org/2000/svg" xmlns:xlink="http://www.w3.org/1999/xlink" x="0px" y="0px"
	 viewBox="0 0 398.49 134.27" style="enable-background:new 0 0 398.49 134.27;" xml:space="preserve">
<style type="text/css">
	.st0{fill:#FF5050;}
	.st1{fill:#FFD85C;}
	.st2{fill:#FFCC33;}
	.st3{fill:#FFE2A9;stroke:#FFE2A9;stroke-miterlimit:10;}
	.st4{fill:#999999;}
	.st5{fill:#FFF5B0;}
</style>
<g>
	<path class="st0" d="M43.83,132.85H12c-6.6,0-12-5.4-12-12V13.01c0-6.6,5.4-12,12-12h31.83c6.6,0,12,5.4,12,12v107.84
		C55.83,127.45,50.43,132.85,43.83,132.85z"/>
	<g>
		<rect x="39.08" y="1.01" class="st1" width="292.45" height="66.13"/>
	</g>
	<g>
		<rect x="39.08" y="67.15" class="st2" width="292.45" height="65.7"/>
	</g>
	<polygon class="st3" points="397.78,67.46 332.17,133.06 331.53,1.21 381.35,51.02 	"/>
	<polygon class="st4" points="397.78,67.46 381.35,83.89 381.35,51.02 	"/>
	<rect x="25.34" y="1.01" class="st4" width="13.74" height="131.84"/>
	<g>
		<g>
			<path class="st5" d="M112.41,73.03c1.17,0,2.18,0.14,3.05,0.41c0.86,0.27,1.58,0.66,2.15,1.15c0.57,0.5,0.99,1.1,1.27,1.8
				c0.28,0.7,0.42,1.49,0.42,2.36c0,0.86-0.15,1.64-0.45,2.36c-0.3,0.71-0.74,1.33-1.32,1.84c-0.58,0.51-1.3,0.92-2.15,1.2
				c-0.85,0.29-1.84,0.43-2.96,0.43h-2.96v6.91h-2.49V73.03H112.41z M112.41,82.6c0.71,0,1.34-0.09,1.89-0.28
				c0.55-0.19,1-0.45,1.38-0.79c0.37-0.34,0.65-0.75,0.84-1.22c0.19-0.47,0.28-0.99,0.28-1.56c0-1.18-0.36-2.1-1.09-2.76
				c-0.73-0.66-1.83-0.99-3.3-0.99h-2.96v7.6H112.41z"/>
			<path class="st5" d="M133.82,89.45l-0.01,2.04h-11.38V73.03h11.38v2.04h-8.88v6.13h7.19v1.96h-7.19v6.3H133.82z"/>
			<path class="st5" d="M152.27,73.03v18.46h-1.25c-0.2,0-0.36-0.03-0.5-0.1c-0.13-0.07-0.26-0.18-0.39-0.35l-10.68-13.91
				c0.02,0.21,0.03,0.43,0.04,0.63c0.01,0.21,0.01,0.4,0.01,0.58v13.15h-2.19V73.03h1.29c0.11,0,0.21,0.01,0.28,0.02
				c0.08,0.01,0.15,0.03,0.21,0.06c0.06,0.03,0.12,0.07,0.18,0.13c0.06,0.06,0.12,0.13,0.19,0.21l10.68,13.9
				c-0.02-0.22-0.03-0.44-0.05-0.65c-0.01-0.21-0.02-0.41-0.02-0.6V73.03H152.27z"/>
			<path class="st5" d="M169.95,87.68c0.14,0,0.26,0.06,0.36,0.17l0.99,1.07c-0.76,0.88-1.67,1.56-2.75,2.05
				c-1.08,0.49-2.38,0.73-3.91,0.73c-1.32,0-2.53-0.23-3.61-0.69c-1.08-0.46-2.01-1.1-2.77-1.93c-0.76-0.83-1.36-1.82-1.78-2.98
				c-0.42-1.16-0.63-2.44-0.63-3.83c0-1.39,0.22-2.67,0.66-3.83c0.44-1.16,1.05-2.16,1.85-2.99c0.79-0.83,1.75-1.48,2.85-1.94
				c1.11-0.46,2.33-0.69,3.67-0.69c1.31,0,2.47,0.21,3.48,0.63c1,0.42,1.89,0.99,2.65,1.71l-0.82,1.15
				c-0.05,0.09-0.12,0.16-0.2,0.21c-0.08,0.06-0.19,0.08-0.33,0.08c-0.15,0-0.34-0.08-0.57-0.25c-0.22-0.17-0.52-0.35-0.88-0.56
				c-0.36-0.21-0.81-0.39-1.35-0.56c-0.54-0.17-1.21-0.25-2-0.25c-0.95,0-1.83,0.17-2.62,0.5c-0.79,0.33-1.47,0.81-2.04,1.44
				c-0.57,0.63-1.02,1.39-1.33,2.29c-0.32,0.9-0.48,1.92-0.48,3.05c0,1.15,0.17,2.18,0.5,3.08c0.33,0.9,0.78,1.66,1.35,2.29
				c0.57,0.62,1.25,1.1,2.02,1.42c0.78,0.33,1.62,0.49,2.52,0.49c0.55,0,1.05-0.03,1.49-0.1c0.44-0.06,0.85-0.17,1.22-0.3
				c0.37-0.14,0.72-0.31,1.04-0.52c0.32-0.21,0.64-0.46,0.96-0.75C169.66,87.74,169.8,87.68,169.95,87.68z"/>
			<path class="st5" d="M176.7,91.49h-2.5V73.03h2.5V91.49z"/>
			<path class="st5" d="M191.89,89.39v2.1h-10.47V73.03h2.49v16.36H191.89z"/>
			<path class="st5" d="M216.24,91.49h-2.23c-0.25,0-0.45-0.03-0.61-0.09c-0.15-0.06-0.32-0.18-0.5-0.37l-1.87-1.88
				c-0.81,0.78-1.74,1.4-2.79,1.86c-1.05,0.46-2.21,0.69-3.47,0.69c-0.69,0-1.36-0.12-2.02-0.35s-1.25-0.57-1.77-1.01
				c-0.52-0.44-0.94-0.98-1.26-1.62c-0.32-0.64-0.48-1.35-0.48-2.15c0-0.6,0.1-1.17,0.3-1.71c0.2-0.54,0.48-1.03,0.84-1.49
				c0.36-0.46,0.79-0.86,1.28-1.22c0.49-0.36,1.03-0.67,1.61-0.93c-0.52-0.67-0.91-1.32-1.16-1.94s-0.37-1.27-0.37-1.94
				c0-0.63,0.11-1.22,0.34-1.76s0.56-1.03,0.99-1.44c0.43-0.41,0.95-0.73,1.57-0.97c0.61-0.24,1.3-0.35,2.07-0.35
				c0.68,0,1.3,0.11,1.86,0.33c0.56,0.22,1.04,0.51,1.44,0.87c0.4,0.36,0.72,0.78,0.96,1.26c0.24,0.48,0.37,0.97,0.41,1.49
				l-1.43,0.28c-0.28,0.07-0.49-0.06-0.63-0.4c-0.06-0.22-0.16-0.46-0.29-0.7c-0.13-0.24-0.3-0.46-0.52-0.66
				c-0.21-0.2-0.46-0.36-0.76-0.49c-0.3-0.13-0.64-0.19-1.04-0.19c-0.43,0-0.82,0.07-1.17,0.21c-0.35,0.14-0.64,0.33-0.89,0.57
				c-0.24,0.24-0.43,0.53-0.56,0.86c-0.13,0.33-0.19,0.69-0.19,1.08c0,0.3,0.03,0.59,0.1,0.86c0.07,0.28,0.18,0.55,0.33,0.84
				c0.15,0.28,0.34,0.57,0.57,0.86c0.23,0.29,0.51,0.6,0.84,0.93l5.31,5.4c0.33-0.58,0.59-1.19,0.79-1.82
				c0.2-0.63,0.33-1.26,0.39-1.89c0.02-0.16,0.07-0.29,0.15-0.39c0.09-0.09,0.21-0.14,0.36-0.14h1.4c-0.01,0.99-0.16,1.96-0.46,2.91
				s-0.73,1.84-1.3,2.67L216.24,91.49z M204.33,82.39c-0.91,0.48-1.6,1.07-2.05,1.75c-0.46,0.69-0.69,1.43-0.69,2.24
				c0,0.56,0.1,1.05,0.31,1.48c0.21,0.42,0.48,0.78,0.81,1.08c0.34,0.29,0.72,0.51,1.15,0.66c0.43,0.15,0.87,0.23,1.31,0.23
				c0.96,0,1.83-0.18,2.6-0.53c0.77-0.35,1.44-0.82,2.02-1.42L204.33,82.39z"/>
			<path class="st5" d="M238.37,87.68c0.14,0,0.26,0.06,0.36,0.17l0.99,1.07c-0.76,0.88-1.67,1.56-2.75,2.05
				c-1.08,0.49-2.38,0.73-3.91,0.73c-1.32,0-2.53-0.23-3.61-0.69c-1.08-0.46-2.01-1.1-2.77-1.93c-0.76-0.83-1.36-1.82-1.78-2.98
				c-0.42-1.16-0.63-2.44-0.63-3.83c0-1.39,0.22-2.67,0.66-3.83c0.44-1.16,1.05-2.16,1.85-2.99c0.79-0.83,1.75-1.48,2.85-1.94
				c1.11-0.46,2.33-0.69,3.67-0.69c1.31,0,2.47,0.21,3.48,0.63c1,0.42,1.89,0.99,2.65,1.71l-0.82,1.15
				c-0.05,0.09-0.12,0.16-0.2,0.21s-0.19,0.08-0.33,0.08c-0.15,0-0.34-0.08-0.57-0.25c-0.22-0.17-0.52-0.35-0.88-0.56
				c-0.36-0.21-0.81-0.39-1.35-0.56c-0.54-0.17-1.21-0.25-2-0.25c-0.95,0-1.83,0.17-2.62,0.5c-0.79,0.33-1.47,0.81-2.04,1.44
				c-0.57,0.63-1.02,1.39-1.33,2.29c-0.32,0.9-0.48,1.92-0.48,3.05c0,1.15,0.17,2.18,0.5,3.08c0.33,0.9,0.78,1.66,1.35,2.29
				c0.57,0.62,1.25,1.1,2.02,1.42c0.78,0.33,1.62,0.49,2.52,0.49c0.55,0,1.05-0.03,1.49-0.1c0.44-0.06,0.85-0.17,1.22-0.3
				c0.37-0.14,0.72-0.31,1.04-0.52c0.32-0.21,0.64-0.46,0.96-0.75C238.08,87.74,238.22,87.68,238.37,87.68z"/>
			<path class="st5" d="M259.32,82.27c0,1.38-0.22,2.65-0.66,3.81c-0.44,1.16-1.06,2.15-1.85,2.98c-0.8,0.83-1.76,1.48-2.88,1.94
				c-1.12,0.46-2.36,0.69-3.72,0.69c-1.36,0-2.59-0.23-3.71-0.69c-1.12-0.46-2.07-1.11-2.87-1.94c-0.8-0.83-1.42-1.83-1.86-2.98
				c-0.44-1.15-0.66-2.42-0.66-3.81c0-1.38,0.22-2.65,0.66-3.81c0.44-1.15,1.06-2.15,1.86-2.99c0.8-0.84,1.76-1.49,2.87-1.95
				c1.12-0.46,2.35-0.7,3.71-0.7c1.36,0,2.6,0.23,3.72,0.7c1.12,0.46,2.08,1.11,2.88,1.95c0.8,0.84,1.42,1.83,1.85,2.99
				C259.1,79.61,259.32,80.88,259.32,82.27z M256.76,82.27c0-1.13-0.15-2.15-0.46-3.05c-0.31-0.9-0.75-1.66-1.31-2.29
				c-0.57-0.62-1.25-1.1-2.06-1.44s-1.71-0.5-2.71-0.5c-0.99,0-1.89,0.17-2.69,0.5c-0.81,0.34-1.5,0.81-2.07,1.44
				c-0.57,0.62-1.01,1.38-1.32,2.29c-0.31,0.9-0.46,1.92-0.46,3.05c0,1.13,0.15,2.15,0.46,3.05s0.75,1.66,1.32,2.28
				c0.57,0.62,1.26,1.1,2.07,1.43c0.81,0.33,1.7,0.5,2.69,0.5c1,0,1.9-0.17,2.71-0.5c0.81-0.33,1.49-0.81,2.06-1.43
				c0.57-0.62,1.01-1.38,1.31-2.28C256.6,84.41,256.76,83.4,256.76,82.27z"/>
			<path class="st5" d="M261.35,90.07c0-0.22,0.04-0.43,0.12-0.63c0.08-0.2,0.19-0.37,0.33-0.52c0.14-0.15,0.31-0.26,0.51-0.35
				c0.2-0.09,0.41-0.13,0.63-0.13c0.22,0,0.43,0.04,0.63,0.13c0.2,0.09,0.37,0.2,0.52,0.35s0.26,0.32,0.35,0.52
				c0.09,0.2,0.13,0.41,0.13,0.63c0,0.23-0.04,0.44-0.13,0.64c-0.09,0.19-0.2,0.36-0.35,0.51s-0.32,0.26-0.52,0.34
				c-0.2,0.08-0.41,0.12-0.63,0.12c-0.22,0-0.43-0.04-0.63-0.12s-0.37-0.2-0.51-0.34c-0.14-0.15-0.25-0.32-0.33-0.51
				C261.39,90.52,261.35,90.3,261.35,90.07z"/>
		</g>
	</g>
</g>
</svg>
