<?xml version="1.0" encoding="utf-8"?>
<!-- Generator: Adobe Illustrator 24.1.2, SVG Export Plug-In . SVG Version: 6.00 Build 0)  -->
<svg version="1.1" id="Layer_1" xmlns="http://www.w3.org/2000/svg" xmlns:xlink="http://www.w3.org/1999/xlink" x="0px" y="0px"
	 viewBox="0 0 60 60" style="enable-background:new 0 0 60 60;" xml:space="preserve">
<style type="text/css">
	.st0{fill:#FFFFFF;}
	.st1{fill:#36609F;}
	.st2{fill:#2AA9E0;}
	.st3{fill:#F48020;}
</style>
<g id="XMLID_2_">
	<circle id="XMLID_38_" class="st0" cx="-997" cy="25" r="26.65"/>
	<path id="XMLID_17_" class="st1" d="M-997-5c-16.57,0-30,13.43-30,30c0,16.57,13.43,30,30,30c16.57,0,30-13.43,30-30
		C-967,8.43-980.43-5-997-5z M-990.57,25.01h-4.2c0,6.72,0,14.99,0,14.99h-6.23c0,0,0-8.19,0-14.99h-2.96v-5.3h2.96v-3.43
		c0-2.45,1.16-6.29,6.29-6.29l4.61,0.02v5.14c0,0-2.81,0-3.35,0c-0.55,0-1.32,0.27-1.32,1.44v3.11h4.75L-990.57,25.01z"/>
</g>
<g id="XMLID_7_">
	<circle id="XMLID_62_" class="st0" cx="-521" cy="24.5" r="26.65"/>
	<path id="XMLID_59_" class="st2" d="M-521-5.5c-16.57,0-30,13.43-30,30c0,16.57,13.43,30,30,30c16.57,0,30-13.43,30-30
		C-491,7.93-504.43-5.5-521-5.5z M-509.07,18.38c0.01,0.26,0.02,0.53,0.02,0.79c0,8.13-6.19,17.51-17.51,17.51
		c-3.48,0-6.71-1.02-9.44-2.76c0.48,0.05,0.97,0.08,1.47,0.08c2.89,0,5.54-0.98,7.64-2.63c-2.69-0.05-4.97-1.83-5.75-4.27
		c0.38,0.07,0.76,0.11,1.16,0.11c0.56,0,1.11-0.08,1.62-0.22c-2.81-0.57-4.94-3.05-4.94-6.04c0-0.03,0-0.05,0-0.08
		c0.83,0.46,1.78,0.74,2.79,0.77c-1.65-1.1-2.74-2.99-2.74-5.12c0-1.13,0.3-2.19,0.83-3.09c3.03,3.72,7.57,6.17,12.69,6.43
		c-0.1-0.45-0.16-0.92-0.16-1.4c0-3.4,2.76-6.15,6.16-6.15c1.77,0,3.37,0.75,4.49,1.94c1.4-0.27,2.72-0.79,3.91-1.49
		c-0.46,1.44-1.44,2.64-2.71,3.41c1.25-0.15,2.43-0.48,3.53-0.97C-506.82,16.43-507.87,17.52-509.07,18.38z"/>
</g>
<g id="XMLID_8_">
	<circle id="XMLID_41_" class="st0" cx="30" cy="30" r="26.65"/>
	<path id="XMLID_3_" class="st3" d="M30,0C13.43,0,0,13.43,0,30c0,16.57,13.43,30,30,30s30-13.43,30-30C60,13.43,46.57,0,30,0z
		 M19.04,44.97c-2.2,0-3.98-1.78-3.98-3.98c0-2.2,1.78-3.98,3.98-3.98c2.2,0,3.98,1.78,3.98,3.98
		C23.03,43.18,21.24,44.97,19.04,44.97z M29.04,44.99c0-3.76-1.46-7.29-4.1-9.94c-2.63-2.65-6.14-4.11-9.87-4.11V25.2
		c10.87,0,19.72,8.88,19.72,19.8H29.04z M39.19,45c0-13.37-10.82-24.25-24.12-24.25V15c16.47,0,29.87,13.46,29.87,30H39.19z"/>
</g>
</svg>
